HIERARCHY
ROOT Hips
{
  OFFSET -17.358 7.230 -337.408
  CHANNELS 6 Xposition Yposition Zposition Zrotation Xrotation Yrotation
  JOINT LeftUpLeg
  {
    OFFSET 7.553 -7.328 2.195
    CHANNELS 6 Xposition Yposition Zposition Zrotation Xrotation Yrotation
    JOINT LeftLeg
    {
      OFFSET 0.000 -51.881 0.000
      CHANNELS 6 Xposition Yposition Zposition Zrotation Xrotation Yrotation
      JOINT LeftFoot
      {
        OFFSET -0.000 -42.130 -0.000
        CHANNELS 6 Xposition Yposition Zposition Zrotation Xrotation Yrotation
        End Site
        {
          OFFSET 0.000 -9.626 5.558
        }
      }
    }
  }
  JOINT RightUpLeg
  {
    OFFSET -7.480 -7.613 0.970
    CHANNELS 6 Xposition Yposition Zposition Zrotation Xrotation Yrotation
    JOINT RightLeg
    {
      OFFSET -0.000 -53.090 0.000
      CHANNELS 6 Xposition Yposition Zposition Zrotation Xrotation Yrotation
      JOINT RightFoot
      {
        OFFSET -0.000 -39.557 -0.000
        CHANNELS 6 Xposition Yposition Zposition Zrotation Xrotation Yrotation
        End Site
        {
          OFFSET 0.000 -10.799 6.235
        }
      }
    }
  }
  JOINT Spine
  {
    OFFSET 0.000 6.294 -6.294
    CHANNELS 6 Xposition Yposition Zposition Zrotation Xrotation Yrotation
    JOINT LeftShoulder
    {
      OFFSET -0.000 37.684 0.000
      CHANNELS 6 Xposition Yposition Zposition Zrotation Xrotation Yrotation
      JOINT LeftArm
      {
        OFFSET 19.001 0.000 -0.000
        CHANNELS 6 Xposition Yposition Zposition Zrotation Xrotation Yrotation
        JOINT LeftForeArm
        {
          OFFSET 27.135 -0.000 0.000
          CHANNELS 6 Xposition Yposition Zposition Zrotation Xrotation Yrotation
          JOINT LeftHand
          {
            OFFSET 27.472 0.000 -0.000
            CHANNELS 6 Xposition Yposition Zposition Zrotation Xrotation Yrotation
            JOINT LeftHandThumb1
            {
            OFFSET 4.970 -0.620 3.390
            CHANNELS 6 Xposition Yposition Zposition Zrotation Xrotation Yrotation
              JOINT LeftHandThumb2
              {
              OFFSET 2.150 -0.000 0.000
              CHANNELS 6 Xposition Yposition Zposition Zrotation Xrotation Yrotation
                JOINT LeftHandThumb3
                {
                OFFSET 2.200 -0.000 0.000
                CHANNELS 6 Xposition Yposition Zposition Zrotation Xrotation Yrotation
                  JOINT LeftHandThumb4
                  {
                  OFFSET 1.700 -0.000 0.000
                  CHANNELS 6 Xposition Yposition Zposition Zrotation Xrotation Yrotation
                  }
                }
              }
            }
            JOINT LeftHandIndex1
            {
            OFFSET 8.730 0.680 2.070
            CHANNELS 6 Xposition Yposition Zposition Zrotation Xrotation Yrotation
              JOINT LeftHandIndex2
              {
              OFFSET 2.670 -0.000 0.000
              CHANNELS 6 Xposition Yposition Zposition Zrotation Xrotation Yrotation
                JOINT LeftHandIndex3
                {
                OFFSET 2.130 -0.000 0.000
                CHANNELS 6 Xposition Yposition Zposition Zrotation Xrotation Yrotation
                  JOINT LeftHandIndex4
                  {
                  OFFSET 1.800 -0.000 0.000
                  CHANNELS 6 Xposition Yposition Zposition Zrotation Xrotation Yrotation
                  }
                }
              }
            }
            JOINT LeftHandMiddle1
            {
            OFFSET 9.220 0.670 0.550
            CHANNELS 6 Xposition Yposition Zposition Zrotation Xrotation Yrotation
              JOINT LeftHandMiddle2
              {
              OFFSET 2.660 -0.000 0.000
              CHANNELS 6 Xposition Yposition Zposition Zrotation Xrotation Yrotation
                JOINT LeftHandMiddle3
                {
                OFFSET 2.280 -0.000 0.000
                CHANNELS 6 Xposition Yposition Zposition Zrotation Xrotation Yrotation
                  JOINT LeftHandMiddle4
                  {
                  OFFSET 1.500 -0.000 0.000
                  CHANNELS 6 Xposition Yposition Zposition Zrotation Xrotation Yrotation
                  }
                }
              }
            }
            JOINT LeftHandRing1
            {
            OFFSET 9.250 0.670 -1.130
            CHANNELS 6 Xposition Yposition Zposition Zrotation Xrotation Yrotation
              JOINT LeftHandRing2
              {
              OFFSET 2.470 -0.000 0.000
              CHANNELS 6 Xposition Yposition Zposition Zrotation Xrotation Yrotation
                JOINT LeftHandRing3
                {
                OFFSET 2.210 -0.000 0.000
                CHANNELS 6 Xposition Yposition Zposition Zrotation Xrotation Yrotation
                  JOINT LeftHandRing4
                  {
                  OFFSET 1.800 -0.000 0.000
                  CHANNELS 6 Xposition Yposition Zposition Zrotation Xrotation Yrotation
                  }
                }
              }
            }
            JOINT LeftHandPinky1
            {
            OFFSET 9.350 0.660 -2.720
            CHANNELS 6 Xposition Yposition Zposition Zrotation Xrotation Yrotation
              JOINT LeftHandPinky2
              {
              OFFSET 1.630 -0.000 0.000
              CHANNELS 6 Xposition Yposition Zposition Zrotation Xrotation Yrotation
                JOINT LeftHandPinky3
                {
                OFFSET 1.710 -0.000 0.000
                CHANNELS 6 Xposition Yposition Zposition Zrotation Xrotation Yrotation
                  JOINT LeftHandPinky4
                  {
                  OFFSET 1.800 -0.000 0.000
                  CHANNELS 6 Xposition Yposition Zposition Zrotation Xrotation Yrotation
                  }
                }
              }
            }
          }
        }
      }
    }
    JOINT RightShoulder
    {
      OFFSET -0.000 37.684 0.000
      CHANNELS 6 Xposition Yposition Zposition Zrotation Xrotation Yrotation
      JOINT RightArm
      {
        OFFSET -19.465 0.000 -0.000
        CHANNELS 6 Xposition Yposition Zposition Zrotation Xrotation Yrotation
        JOINT RightForeArm
        {
          OFFSET -26.897 0.000 0.000
          CHANNELS 6 Xposition Yposition Zposition Zrotation Xrotation Yrotation
          JOINT RightHand
          {
            OFFSET -27.119 0.000 -0.000
            CHANNELS 6 Xposition Yposition Zposition Zrotation Xrotation Yrotation
            JOINT RightHandThumb1
            {
            OFFSET -4.970 -0.620 3.390
            CHANNELS 6 Xposition Yposition Zposition Zrotation Xrotation Yrotation
              JOINT RightHandThumb2
              {
              OFFSET -2.150 0.000 0.000
              CHANNELS 6 Xposition Yposition Zposition Zrotation Xrotation Yrotation
                JOINT RightHandThumb3
                {
                OFFSET -2.200 0.000 0.000
                CHANNELS 6 Xposition Yposition Zposition Zrotation Xrotation Yrotation
                  JOINT RightHandThumb4
                  {
                  OFFSET -1.700 0.000 0.000
                  CHANNELS 6 Xposition Yposition Zposition Zrotation Xrotation Yrotation
                  }
                }
              }
            }
            JOINT RightHandIndex1
            {
            OFFSET -8.730 0.680 2.070
            CHANNELS 6 Xposition Yposition Zposition Zrotation Xrotation Yrotation
              JOINT RightHandIndex2
              {
              OFFSET -2.670 0.000 0.000
              CHANNELS 6 Xposition Yposition Zposition Zrotation Xrotation Yrotation
                JOINT RightHandIndex3
                {
                OFFSET -2.130 0.000 0.000
                CHANNELS 6 Xposition Yposition Zposition Zrotation Xrotation Yrotation
                  JOINT RightHandIndex4
                  {
                  OFFSET -1.800 0.000 0.000
                  CHANNELS 6 Xposition Yposition Zposition Zrotation Xrotation Yrotation
                  }
                }
              }
            }
            JOINT RightHandMiddle1
            {
            OFFSET -9.220 0.670 0.550
            CHANNELS 6 Xposition Yposition Zposition Zrotation Xrotation Yrotation
              JOINT RightHandMiddle2
              {
              OFFSET -2.660 0.000 0.000
              CHANNELS 6 Xposition Yposition Zposition Zrotation Xrotation Yrotation
                JOINT RightHandMiddle3
                {
                OFFSET -2.280 0.000 0.000
                CHANNELS 6 Xposition Yposition Zposition Zrotation Xrotation Yrotation
                  JOINT RightHandMiddle4
                  {
                  OFFSET -1.500 0.000 0.000
                  CHANNELS 6 Xposition Yposition Zposition Zrotation Xrotation Yrotation
                  }
                }
              }
            }
            JOINT RightHandRing1
            {
            OFFSET -9.250 0.670 -1.130
            CHANNELS 6 Xposition Yposition Zposition Zrotation Xrotation Yrotation
              JOINT RightHandRing2
              {
              OFFSET -2.470 0.000 0.000
              CHANNELS 6 Xposition Yposition Zposition Zrotation Xrotation Yrotation
                JOINT RightHandRing3
                {
                OFFSET -2.210 0.000 0.000
                CHANNELS 6 Xposition Yposition Zposition Zrotation Xrotation Yrotation
                  JOINT RightHandRing4
                  {
                  OFFSET -1.800 0.000 0.000
                  CHANNELS 6 Xposition Yposition Zposition Zrotation Xrotation Yrotation
                  }
                }
              }
            }
            JOINT RightHandPinky1
            {
            OFFSET -9.350 0.660 -2.720
            CHANNELS 6 Xposition Yposition Zposition Zrotation Xrotation Yrotation
              JOINT RightHandPinky2
              {
              OFFSET -1.630 0.000 0.000
              CHANNELS 6 Xposition Yposition Zposition Zrotation Xrotation Yrotation
                JOINT RightHandPinky3
                {
                OFFSET -1.710 0.000 0.000
                CHANNELS 6 Xposition Yposition Zposition Zrotation Xrotation Yrotation
                  JOINT RightHandPinky4
                  {
                  OFFSET -1.800 0.000 0.000
                  CHANNELS 6 Xposition Yposition Zposition Zrotation Xrotation Yrotation
                  }
                }
              }
            }
          }
        }
      }
    }
    JOINT Neck
    {
      OFFSET -0.000 37.684 0.000
      CHANNELS 6 Xposition Yposition Zposition Zrotation Xrotation Yrotation
      JOINT Head
      {
        OFFSET -0.000 19.866 -0.000
        CHANNELS 6 Xposition Yposition Zposition Zrotation Xrotation Yrotation
        End Site
        {
          OFFSET -0.000 0.079 -0.000
        }
      }
    }
  }
}
MOTION
Frames:	5
Frame Time:	0.0333333
-17.4971 6.83701 -335.776 0.465388 0.689432 -0.457094 6.87753 -7.44315 1.58968 5.32529 -1.71749 -0.73551 4.47035e-06 -52.6812 0 -8.49158 -2.69591 -0.402347 -2.98023e-06 -40.5541 -4.76837e-05 0.584969 -1.38375 0.356254 -7.2777 -7.22792 1.36306 -1.97957 1.2582 -0.892555 2.98023e-06 -53.9695 0 4.78492 -1.00639 0.0842372 -5.96046e-06 -40.3555 -2.38419e-05 0.781236 -28.7519 0.782778 1.04308e-05 6.24661 -6.24661 -1.39017 -1.84497 2.44934 -7.82311e-06 37.6841 0 -29.7991 1.25932e-05 -9.98145 19.3582 1.49012e-05 0 -55.658 -10.9126 -28.4943 28.3127 -5.96046e-06 -4.76837e-05 -6.18308 0.933033 -8.54802 25.9022 4.47035e-06 4.76837e-05 -3.35513 0.016018 -2.73589 0.0062 0.0497 0.0339 0 0 0 0 0.0215 0 0 0 0 0 0.022 0 0 0 0 0 0.017 0 0 0 0 -0.0068 0.0873 0.0207 0 0 0 0 0.0267 0 0 0 0 0 0.0213 0 0 0 0 0 0.018 0 0 0 0 -0.0067 0.0922 0.0055 0 0 0 0 0.0266 0 0 0 0 0 0.0228 0 0 0 0 0 0.015 0 0 0 0 -0.0067 0.0925 -0.0113 0 0 0 0 0.0247 0 0 0 0 0 0.0221 0 0 0 0 0 0.018 0 0 0 0 -0.0066 0.0935 -0.0272 0 0 0 0 0.0163 0 0 0 0 0 0.0171 0 0 0 0 0 0.018 0 0 0 0 -7.82311e-06 37.6841 0 35.8049 -3.6819e-06 9.44524 -20.4463 1.49012e-05 2.38419e-05 9.38263 60.0031 44.0133 -25.651 -2.38419e-05 -5.96046e-06 2.12627e-05 0 76.0591 -20.6194 7.15256e-05 -1.19209e-05 -51.1219 -0.369891 25.6484 -0.0062 0.0497 0.0339 0 0 0 0 0.0215 0 0 0 0 0 0.022 0 0 0 0 0 0.017 0 0 0 0 0.0068 0.0873 0.0207 0 0 0 0 0.0267 0 0 0 0 0 0.0213 0 0 0 0 0 0.018 0 0 0 0 0.0067 0.0922 0.0055 0 0 0 0 0.0266 0 0 0 0 0 0.0228 0 0 0 0 0 0.015 0 0 0 0 0.0067 0.0925 -0.0113 0 0 0 0 0.0247 0 0 0 0 0 0.0221 0 0 0 0 0 0.018 0 0 0 0 0.0066 0.0935 -0.0272 0 0 0 0 0.0163 0 0 0 0 0 0.0171 0 0 0 0 0 0.018 0 0 0 0 -7.82311e-06 37.6841 0 4.4141 8.63668 -0.664141 -2.23517e-06 19.3108 2.38419e-05 1.07122e-05 -1.19528e-05 0 
-17.5494 6.7895 -335.763 0.536032 0.54057 -0.308584 6.89607 -7.43948 1.61276 5.26078 -1.47556 -0.984242 -4.47035e-06 -52.5817 4.76837e-05 -8.45426 -2.8147 -0.418186 2.98023e-06 -40.7077 4.76837e-05 0.650844 -0.986351 0.388393 -7.29997 -7.18208 1.33014 -2.02344 1.52386 -1.1141 0 -53.8246 -2.38419e-05 4.99158 -1.54022 0.134507 0 -40.6886 4.76837e-05 0.104321 -28.2493 0.123734 5.96046e-06 6.24301 -6.24304 -1.46915 -1.79324 2.48717 -8.9407e-06 37.6841 4.76837e-05 -29.5186 1.21663e-05 -10.2067 19.4219 0 -9.53674e-05 -55.7912 -11.2294 -28.755 28.1389 -5.96046e-06 9.53674e-05 -7.85165 1.0415 -7.50876 26.6427 4.65661e-07 -4.76837e-05 -4.08666 0.0129236 -2.97798 0.0062 0.0497 0.0339 0 0 0 0 0.0215 0 0 0 0 0 0.022 0 0 0 0 0 0.017 0 0 0 0 -0.0068 0.0873 0.0207 0 0 0 0 0.0267 0 0 0 0 0 0.0213 0 0 0 0 0 0.018 0 0 0 0 -0.0067 0.0922 0.0055 0 0 0 0 0.0266 0 0 0 0 0 0.0228 0 0 0 0 0 0.015 0 0 0 0 -0.0067 0.0925 -0.0113 0 0 0 0 0.0247 0 0 0 0 0 0.0221 0 0 0 0 0 0.018 0 0 0 0 -0.0066 0.0935 -0.0272 0 0 0 0 0.0163 0 0 0 0 0 0.0171 0 0 0 0 0 0.018 0 0 0 0 -8.9407e-06 37.6841 4.76837e-05 36.0372 -2.96153e-06 9.73127 -20.361 0 -9.53674e-05 9.51394 60.4777 43.3894 -25.6812 4.76837e-05 1.19209e-05 1.30561e-05 -6.83019e-06 75.7855 -21.2995 -2.38419e-05 1.19209e-05 -51.7955 -0.25714 26.151 -0.0062 0.0497 0.0339 0 0 0 0 0.0215 0 0 0 0 0 0.022 0 0 0 0 0 0.017 0 0 0 0 0.0068 0.0873 0.0207 0 0 0 0 0.0267 0 0 0 0 0 0.0213 0 0 0 0 0 0.018 0 0 0 0 0.0067 0.0922 0.0055 0 0 0 0 0.0266 0 0 0 0 0 0.0228 0 0 0 0 0 0.015 0 0 0 0 0.0067 0.0925 -0.0113 0 0 0 0 0.0247 0 0 0 0 0 0.0221 0 0 0 0 0 0.018 0 0 0 0 0.0066 0.0935 -0.0272 0 0 0 0 0.0163 0 0 0 0 0 0.0171 0 0 0 0 0 0.018 0 0 0 0 -8.9407e-06 37.6841 4.76837e-05 3.61817 9.4696 -0.596046 7.45058e-07 19.3789 2.38419e-05 1.05388e-05 -1.19528e-05 2.13443e-07 
-17.5494 6.7895 -335.763 0.536032 0.54057 -0.308584 6.89607 -7.43948 1.61276 5.26078 -1.47556 -0.984242 -4.47035e-06 -52.5817 4.76837e-05 -8.45426 -2.8147 -0.418186 2.98023e-06 -40.7077 4.76837e-05 0.650844 -0.986351 0.388393 -7.29997 -7.18208 1.33014 -2.02344 1.52386 -1.1141 0 -53.8246 -2.38419e-05 4.99158 -1.54022 0.134507 0 -40.6886 4.76837e-05 0.104321 -28.2493 0.123734 5.96046e-06 6.24301 -6.24304 -1.46915 -1.79324 2.48717 -8.9407e-06 37.6841 4.76837e-05 -29.5186 1.21663e-05 -10.2067 19.4219 0 -9.53674e-05 -55.7912 -11.2294 -28.755 28.1389 -5.96046e-06 9.53674e-05 -7.85165 1.0415 -7.50876 26.6427 4.65661e-07 -4.76837e-05 -4.08666 0.0129236 -2.97798 0.0062 0.0497 0.0339 0 0 0 0 0.0215 0 0 0 0 0 0.022 0 0 0 0 0 0.017 0 0 0 0 -0.0068 0.0873 0.0207 0 0 0 0 0.0267 0 0 0 0 0 0.0213 0 0 0 0 0 0.018 0 0 0 0 -0.0067 0.0922 0.0055 0 0 0 0 0.0266 0 0 0 0 0 0.0228 0 0 0 0 0 0.015 0 0 0 0 -0.0067 0.0925 -0.0113 0 0 0 0 0.0247 0 0 0 0 0 0.0221 0 0 0 0 0 0.018 0 0 0 0 -0.0066 0.0935 -0.0272 0 0 0 0 0.0163 0 0 0 0 0 0.0171 0 0 0 0 0 0.018 0 0 0 0 -8.9407e-06 37.6841 4.76837e-05 36.0372 -2.96153e-06 9.73127 -20.361 0 -9.53674e-05 9.51394 60.4777 43.3894 -25.6812 4.76837e-05 1.19209e-05 1.30561e-05 -6.83019e-06 75.7855 -21.2995 -2.38419e-05 1.19209e-05 -51.7955 -0.25714 26.151 -0.0062 0.0497 0.0339 0 0 0 0 0.0215 0 0 0 0 0 0.022 0 0 0 0 0 0.017 0 0 0 0 0.0068 0.0873 0.0207 0 0 0 0 0.0267 0 0 0 0 0 0.0213 0 0 0 0 0 0.018 0 0 0 0 0.0067 0.0922 0.0055 0 0 0 0 0.0266 0 0 0 0 0 0.0228 0 0 0 0 0 0.015 0 0 0 0 0.0067 0.0925 -0.0113 0 0 0 0 0.0247 0 0 0 0 0 0.0221 0 0 0 0 0 0.018 0 0 0 0 0.0066 0.0935 -0.0272 0 0 0 0 0.0163 0 0 0 0 0 0.0171 0 0 0 0 0 0.018 0 0 0 0 -8.9407e-06 37.6841 4.76837e-05 3.61817 9.4696 -0.596046 7.45058e-07 19.3789 2.38419e-05 1.05388e-05 -1.19528e-05 2.13443e-07 
-17.5494 6.7895 -335.763 0.536032 0.54057 -0.308584 6.89607 -7.43948 1.61276 5.26078 -1.47556 -0.984242 -4.47035e-06 -52.5817 4.76837e-05 -8.45426 -2.8147 -0.418186 2.98023e-06 -40.7077 4.76837e-05 0.650844 -0.986351 0.388393 -7.29997 -7.18208 1.33014 -2.02344 1.52386 -1.1141 0 -53.8246 -2.38419e-05 4.99158 -1.54022 0.134507 0 -40.6886 4.76837e-05 0.104321 -28.2493 0.123734 5.96046e-06 6.24301 -6.24304 -1.46915 -1.79324 2.48717 -8.9407e-06 37.6841 4.76837e-05 -29.5186 1.21663e-05 -10.2067 19.4219 0 -9.53674e-05 -55.7912 -11.2294 -28.755 28.1389 -5.96046e-06 9.53674e-05 -7.85165 1.0415 -7.50876 26.6427 4.65661e-07 -4.76837e-05 -4.08666 0.0129236 -2.97798 0.0062 0.0497 0.0339 0 0 0 0 0.0215 0 0 0 0 0 0.022 0 0 0 0 0 0.017 0 0 0 0 -0.0068 0.0873 0.0207 0 0 0 0 0.0267 0 0 0 0 0 0.0213 0 0 0 0 0 0.018 0 0 0 0 -0.0067 0.0922 0.0055 0 0 0 0 0.0266 0 0 0 0 0 0.0228 0 0 0 0 0 0.015 0 0 0 0 -0.0067 0.0925 -0.0113 0 0 0 0 0.0247 0 0 0 0 0 0.0221 0 0 0 0 0 0.018 0 0 0 0 -0.0066 0.0935 -0.0272 0 0 0 0 0.0163 0 0 0 0 0 0.0171 0 0 0 0 0 0.018 0 0 0 0 -8.9407e-06 37.6841 4.76837e-05 36.0372 -2.96153e-06 9.73127 -20.361 0 -9.53674e-05 9.51394 60.4777 43.3894 -25.6812 4.76837e-05 1.19209e-05 1.30561e-05 -6.83019e-06 75.7855 -21.2995 -2.38419e-05 1.19209e-05 -51.7955 -0.25714 26.151 -0.0062 0.0497 0.0339 0 0 0 0 0.0215 0 0 0 0 0 0.022 0 0 0 0 0 0.017 0 0 0 0 0.0068 0.0873 0.0207 0 0 0 0 0.0267 0 0 0 0 0 0.0213 0 0 0 0 0 0.018 0 0 0 0 0.0067 0.0922 0.0055 0 0 0 0 0.0266 0 0 0 0 0 0.0228 0 0 0 0 0 0.015 0 0 0 0 0.0067 0.0925 -0.0113 0 0 0 0 0.0247 0 0 0 0 0 0.0221 0 0 0 0 0 0.018 0 0 0 0 0.0066 0.0935 -0.0272 0 0 0 0 0.0163 0 0 0 0 0 0.0171 0 0 0 0 0 0.018 0 0 0 0 -8.9407e-06 37.6841 4.76837e-05 3.61817 9.4696 -0.596046 7.45058e-07 19.3789 2.38419e-05 1.05388e-05 -1.19528e-05 2.13443e-07 
-17.5756 6.87086 -335.743 0.519794 0.437029 -0.360485 6.92935 -7.44325 1.64006 5.29898 -1.32053 -1.24696 -1.49012e-06 -52.5811 -4.76837e-05 -8.54258 -2.5815 -0.387631 0 -40.8671 -2.38419e-05 0.878595 -1.33705 0.525971 -7.33279 -7.16945 1.29478 -1.92535 1.63793 -1.36264 0 -53.914 0 4.90547 -1.67221 0.143499 2.98023e-06 -40.6358 7.15256e-05 -0.139183 -27.9645 -0.114638 1.49012e-06 6.23806 -6.23803 -1.49489 -1.72239 2.47395 -3.72529e-07 37.6841 0 -29.5373 1.10991e-05 -9.99732 19.4525 0 2.38419e-05 -55.6243 -11.1888 -29.2545 28.2116 5.96046e-06 0 -8.99368 1.09922 -6.91103 27.23 -4.84288e-06 0 -4.40003 0.00818822 -2.57043 0.0062 0.0497 0.0339 0 0 0 0 0.0215 0 0 0 0 0 0.022 0 0 0 0 0 0.017 0 0 0 0 -0.0068 0.0873 0.0207 0 0 0 0 0.0267 0 0 0 0 0 0.0213 0 0 0 0 0 0.018 0 0 0 0 -0.0067 0.0922 0.0055 0 0 0 0 0.0266 0 0 0 0 0 0.0228 0 0 0 0 0 0.015 0 0 0 0 -0.0067 0.0925 -0.0113 0 0 0 0 0.0247 0 0 0 0 0 0.0221 0 0 0 0 0 0.018 0 0 0 0 -0.0066 0.0935 -0.0272 0 0 0 0 0.0163 0 0 0 0 0 0.0171 0 0 0 0 0 0.018 0 0 0 0 -3.72529e-07 37.6841 0 36.1453 -3.04157e-06 9.553 -20.3482 -1.19209e-05 4.76837e-05 9.70484 59.6846 43.2029 -25.8137 -4.76837e-05 -2.38419e-05 1.54905e-05 1.36604e-05 75.6399 -21.8629 0 2.38419e-05 -52.6512 -0.224098 27.0211 -0.0062 0.0497 0.0339 0 0 0 0 0.0215 0 0 0 0 0 0.022 0 0 0 0 0 0.017 0 0 0 0 0.0068 0.0873 0.0207 0 0 0 0 0.0267 0 0 0 0 0 0.0213 0 0 0 0 0 0.018 0 0 0 0 0.0067 0.0922 0.0055 0 0 0 0 0.0266 0 0 0 0 0 0.0228 0 0 0 0 0 0.015 0 0 0 0 0.0067 0.0925 -0.0113 0 0 0 0 0.0247 0 0 0 0 0 0.0221 0 0 0 0 0 0.018 0 0 0 0 0.0066 0.0935 -0.0272 0 0 0 0 0.0163 0 0 0 0 0 0.0171 0 0 0 0 0 0.018 0 0 0 0 -3.72529e-07 37.6841 0 3.32091 8.83265 -0.510479 -4.09782e-06 19.3722 -4.76837e-05 9.57827e-06 -1.02453e-05 0 
